<svg width="14" height="14" viewBox="0 0 14 14" fill="none" xmlns="http://www.w3.org/2000/svg">
<g id="bank-note-02">
<path id="Icon" d="M3.33318 5.55561V7.77783M9.99985 5.55561V7.77783M1.11096 4.55561L1.11096 8.77783C1.11096 9.40011 1.11096 9.71125 1.23207 9.94893C1.33859 10.158 1.50857 10.328 1.71764 10.4345C1.95532 10.5556 2.26646 10.5556 2.88874 10.5556L10.4443 10.5556C11.0666 10.5556 11.3777 10.5556 11.6154 10.4345C11.8245 10.328 11.9944 10.158 12.101 9.94893C12.2221 9.71125 12.2221 9.40011 12.2221 8.77783V4.55561C12.2221 3.93333 12.2221 3.62219 12.101 3.38451C11.9944 3.17544 11.8245 3.00546 11.6154 2.89894C11.3777 2.77783 11.0666 2.77783 10.4443 2.77783L2.88874 2.77783C2.26646 2.77783 1.95532 2.77783 1.71764 2.89894C1.50857 3.00546 1.33859 3.17544 1.23207 3.38451C1.11096 3.62219 1.11096 3.93333 1.11096 4.55561ZM8.05541 6.66672C8.05541 7.43378 7.43358 8.05561 6.66652 8.05561C5.89946 8.05561 5.27763 7.43378 5.27763 6.66672C5.27763 5.89966 5.89946 5.27783 6.66652 5.27783C7.43358 5.27783 8.05541 5.89966 8.05541 6.66672Z" stroke="#989AB3" stroke-width="1.11111" stroke-linecap="round" stroke-linejoin="round"/>
</g>
</svg>
