<svg width="14" height="14" viewBox="0 0 14 14" fill="none" xmlns="http://www.w3.org/2000/svg">
<g id="calendar" clip-path="url(#clip0_14_927)">
<path id="Icon" d="M11.6667 6.22203H1.66675M8.88897 1.77759V3.99981M4.44453 1.77759V3.99981M4.33341 12.8887H9.00008C9.9335 12.8887 10.4002 12.8887 10.7567 12.707C11.0703 12.5473 11.3253 12.2923 11.4851 11.9787C11.6667 11.6222 11.6667 11.1555 11.6667 10.222V5.55537C11.6667 4.62195 11.6667 4.15523 11.4851 3.79872C11.3253 3.48511 11.0703 3.23014 10.7567 3.07035C10.4002 2.8887 9.9335 2.8887 9.00008 2.8887H4.33341C3.39999 2.8887 2.93328 2.8887 2.57676 3.07035C2.26316 3.23014 2.00819 3.48511 1.8484 3.79872C1.66675 4.15523 1.66675 4.62195 1.66675 5.55537V10.222C1.66675 11.1555 1.66675 11.6222 1.8484 11.9787C2.00819 12.2923 2.26316 12.5473 2.57676 12.707C2.93328 12.8887 3.39999 12.8887 4.33341 12.8887Z" stroke="#989AB3" stroke-width="1.11111" stroke-linecap="round" stroke-linejoin="round"/>
</g>
<defs>
<clipPath id="clip0_14_927">
<rect width="13.3333" height="13.3333" fill="white" transform="translate(0 0.666504)"/>
</clipPath>
</defs>
</svg>
