<svg width="20" height="21" viewBox="0 0 20 21" fill="none" xmlns="http://www.w3.org/2000/svg">
<g id="edit-01">
<path id="Icon" d="M2.39686 15.4295C2.43515 15.085 2.45429 14.9127 2.50642 14.7516C2.55268 14.6088 2.61802 14.4728 2.70069 14.3474C2.79388 14.2061 2.91645 14.0836 3.1616 13.8384L14.1669 2.83318C15.0873 1.9127 16.5797 1.9127 17.5002 2.83318C18.4207 3.75365 18.4207 5.24604 17.5002 6.16651L6.49493 17.1717C6.24978 17.4169 6.12721 17.5395 5.9859 17.6326C5.86054 17.7153 5.72457 17.7807 5.5817 17.8269C5.42067 17.879 5.24838 17.8982 4.9038 17.9365L2.0835 18.2498L2.39686 15.4295Z" stroke="#666985" stroke-width="1.66667" stroke-linecap="round" stroke-linejoin="round"/>
</g>
</svg>
