<svg width="14" height="14" viewBox="0 0 14 14" fill="none" xmlns="http://www.w3.org/2000/svg">
<g id="layers-two-01">
<path id="Icon" d="M1.11084 8.05548L6.46763 10.7339C6.54051 10.7703 6.57695 10.7885 6.61517 10.7957C6.64903 10.8021 6.68377 10.8021 6.71762 10.7957C6.75584 10.7885 6.79228 10.7703 6.86516 10.7339L12.222 8.05548M1.11084 5.27771L6.46763 2.59931C6.54051 2.56287 6.57695 2.54465 6.61517 2.53748C6.64903 2.53113 6.68377 2.53113 6.71762 2.53748C6.75584 2.54465 6.79228 2.56287 6.86516 2.59931L12.222 5.27771L6.86516 7.9561C6.79228 7.99254 6.75584 8.01076 6.71762 8.01793C6.68377 8.02428 6.64903 8.02428 6.61517 8.01793C6.57695 8.01076 6.54051 7.99254 6.46763 7.9561L1.11084 5.27771Z" stroke="#989AB3" stroke-width="1.11111" stroke-linecap="round" stroke-linejoin="round"/>
</g>
</svg>
