<svg width="56" height="32" viewBox="0 0 56 32" fill="none" xmlns="http://www.w3.org/2000/svg">
<g id="Logotype">
<g id="Coffi">
<path d="M9.02378 24.692C7.79178 24.692 6.68778 24.524 5.71178 24.188C4.75178 23.836 3.92778 23.324 3.23978 22.652C2.56778 21.964 2.05578 21.116 1.70378 20.108C1.35178 19.1 1.17578 17.932 1.17578 16.604C1.17578 15.26 1.35178 14.068 1.70378 13.028C2.07178 11.988 2.59178 11.108 3.26378 10.388C3.95178 9.652 4.75978 9.1 5.68778 8.732C6.61578 8.364 7.64778 8.18 8.78378 8.18C9.66378 8.18 10.4798 8.3 11.2318 8.54C11.9838 8.764 12.6318 9.092 13.1758 9.524C13.7198 9.956 14.1438 10.484 14.4478 11.108C14.7678 11.732 14.9358 12.436 14.9518 13.22L11.7598 14.06C11.7598 13.388 11.6078 12.828 11.3038 12.38C11.0158 11.932 10.6318 11.596 10.1518 11.372C9.68778 11.132 9.19178 11.012 8.66378 11.012C8.19978 11.012 7.73578 11.108 7.27178 11.3C6.82378 11.476 6.40778 11.78 6.02378 12.212C5.65578 12.628 5.35178 13.18 5.11178 13.868C4.88778 14.556 4.77578 15.396 4.77578 16.388C4.77578 17.684 4.95978 18.732 5.32778 19.532C5.71178 20.332 6.23178 20.924 6.88778 21.308C7.54378 21.676 8.27978 21.86 9.09578 21.86C9.97578 21.86 10.6558 21.684 11.1358 21.332C11.6318 20.964 11.9838 20.5 12.1918 19.94C12.4158 19.364 12.5358 18.756 12.5518 18.116L15.5758 18.62C15.5598 19.468 15.4318 20.268 15.1918 21.02C14.9518 21.756 14.5758 22.404 14.0638 22.964C13.5518 23.508 12.8798 23.932 12.0478 24.236C11.2158 24.54 10.2078 24.692 9.02378 24.692Z" fill="#545CB6"/>
<path d="M23.6083 24.692C22.3443 24.692 21.2323 24.444 20.2723 23.948C19.3123 23.436 18.5603 22.692 18.0163 21.716C17.4723 20.724 17.2003 19.492 17.2003 18.02C17.2003 16.548 17.4723 15.324 18.0163 14.348C18.5763 13.372 19.3363 12.644 20.2963 12.164C21.2723 11.668 22.3763 11.42 23.6083 11.42C24.8723 11.42 25.9843 11.668 26.9443 12.164C27.9203 12.66 28.6803 13.404 29.2243 14.396C29.7843 15.372 30.0643 16.596 30.0643 18.068C30.0643 19.556 29.7763 20.796 29.2003 21.788C28.6403 22.764 27.8723 23.492 26.8963 23.972C25.9363 24.452 24.8403 24.692 23.6083 24.692ZM23.7283 22.124C24.3523 22.124 24.8723 21.98 25.2883 21.692C25.7203 21.404 26.0403 20.972 26.2483 20.396C26.4723 19.804 26.5843 19.092 26.5843 18.26C26.5843 17.38 26.4643 16.636 26.2243 16.028C26.0003 15.404 25.6643 14.932 25.2163 14.612C24.7683 14.276 24.2003 14.108 23.5123 14.108C22.9203 14.108 22.4083 14.252 21.9763 14.54C21.5443 14.812 21.2163 15.244 20.9923 15.836C20.7683 16.412 20.6563 17.124 20.6563 17.972C20.6563 19.332 20.9283 20.364 21.4723 21.068C22.0163 21.772 22.7683 22.124 23.7283 22.124Z" fill="#545CB6"/>
<path d="M33.4813 24.356V16.292H31.4893V13.748L34.8493 13.892V13.436C34.2893 13.308 33.8253 13.108 33.4573 12.836C33.1053 12.548 32.8493 12.204 32.6893 11.804C32.5293 11.404 32.4493 10.98 32.4493 10.532C32.4493 9.844 32.6253 9.252 32.9773 8.756C33.3293 8.244 33.8253 7.852 34.4653 7.58C35.1053 7.292 35.8573 7.148 36.7213 7.148C37.4573 7.148 38.1213 7.244 38.7133 7.436C39.3213 7.612 39.8093 7.836 40.1773 8.108L39.9613 11.228C39.5773 10.956 39.1453 10.732 38.6653 10.556C38.1853 10.38 37.7293 10.292 37.2973 10.292C36.8173 10.292 36.4173 10.42 36.0973 10.676C35.7933 10.932 35.6413 11.348 35.6413 11.924C35.6413 12.324 35.7213 12.644 35.8813 12.884C36.0573 13.108 36.2653 13.276 36.5053 13.388C36.7613 13.484 37.0093 13.548 37.2493 13.58H40.1293V16.292H36.8413V24.356H33.4813Z" fill="#545CB6"/>
<path d="M43.4422 24.356V16.292H41.4502V13.748L44.8102 13.892V13.436C44.2502 13.308 43.7862 13.108 43.4182 12.836C43.0662 12.548 42.8102 12.204 42.6502 11.804C42.4902 11.404 42.4102 10.98 42.4102 10.532C42.4102 9.844 42.5862 9.252 42.9382 8.756C43.2902 8.244 43.7862 7.852 44.4262 7.58C45.0662 7.292 45.8182 7.148 46.6822 7.148C47.4182 7.148 48.0822 7.244 48.6742 7.436C49.2822 7.612 49.7702 7.836 50.1382 8.108L49.9222 11.228C49.5382 10.956 49.1062 10.732 48.6262 10.556C48.1462 10.38 47.6902 10.292 47.2582 10.292C46.7782 10.292 46.3782 10.42 46.0582 10.676C45.7542 10.932 45.6022 11.348 45.6022 11.924C45.6022 12.324 45.6822 12.644 45.8422 12.884C46.0182 13.108 46.2262 13.276 46.4662 13.388C46.7222 13.484 46.9702 13.548 47.2102 13.58H50.0902V16.292H46.8022V24.356H43.4422Z" fill="#545CB6"/>
<path d="M52.0916 24.356V11.756H55.5476V24.356H52.0916ZM53.8436 9.86C53.1716 9.86 52.6516 9.724 52.2836 9.452C51.9316 9.164 51.7556 8.748 51.7556 8.204C51.7556 7.644 51.9316 7.22 52.2836 6.932C52.6516 6.644 53.1716 6.5 53.8436 6.5C54.5316 6.5 55.0516 6.644 55.4036 6.932C55.7716 7.22 55.9556 7.644 55.9556 8.204C55.9556 8.732 55.7716 9.14 55.4036 9.428C55.0516 9.716 54.5316 9.86 53.8436 9.86Z" fill="#545CB6"/>
</g>
</g>
</svg>
