<svg width="18" height="18" viewBox="0 0 18 18" fill="none" xmlns="http://www.w3.org/2000/svg">
<g id="Logomark">
<path id="Exclude" fill-rule="evenodd" clip-rule="evenodd" d="M0.368652 8.89492C0.368652 4.01677 4.33059 0.0622559 9.21793 0.0622559C13.1378 0.0622559 16.4623 2.60606 17.625 6.12997C17.6287 6.14125 17.6304 6.15314 17.63 6.16501C17.6262 6.27361 17.4684 6.30468 17.4186 6.20806C16.4403 4.30704 14.4562 3.00648 12.1677 3.00648C8.90949 3.00648 6.26817 5.64281 6.26817 8.89492C6.26817 12.147 8.90949 14.7834 12.1677 14.7834C14.4581 14.7834 16.4436 13.4806 17.4211 11.577C17.4707 11.4803 17.6318 11.5146 17.6318 11.6233C17.6318 11.6337 17.6301 11.6442 17.6269 11.6541C16.4659 15.181 13.1399 17.7276 9.21793 17.7276C4.33059 17.7276 0.368652 13.7731 0.368652 8.89492Z" fill="#FFF9F5"/>
<path id="Exclude_2" d="M0.368652 8.89492C0.368652 4.01677 4.33061 0.0622559 9.21793 0.0622559C13.1689 0.0622559 16.5151 2.64667 17.6523 6.2142C17.85 6.8345 17.3516 7.42281 16.7005 7.42281H12.7975C12.3173 7.42281 11.9071 7.09333 11.7237 6.64965C10.8393 4.51134 8.72982 3.00648 6.26817 3.00648C3.00996 3.00648 0.368652 5.64282 0.368652 8.89492Z" fill="#E79654"/>
<path id="Exclude_3" d="M0.368652 8.89488C0.368652 13.773 4.33061 17.7275 9.21793 17.7275C13.1689 17.7275 16.5151 15.1431 17.6523 11.5756C17.85 10.9553 17.3516 10.367 16.7005 10.367H12.7975C12.3173 10.367 11.9071 10.6965 11.7237 11.1401C10.8393 13.2785 8.72982 14.7833 6.26817 14.7833C3.00996 14.7833 0.368652 12.147 0.368652 8.89488Z" fill="#E79654"/>
</g>
</svg>
