<svg width="20" height="21" viewBox="0 0 20 21" fill="none" xmlns="http://www.w3.org/2000/svg">
<g id="message-circle-01">
<path id="Icon" d="M17.4999 9.91659C17.4999 13.8286 14.3285 16.9999 10.4165 16.9999C9.5192 16.9999 8.66086 16.8331 7.87081 16.5287C7.72637 16.473 7.65415 16.4452 7.59671 16.432C7.54022 16.419 7.49933 16.4135 7.4414 16.4113C7.3825 16.4091 7.31789 16.4157 7.18865 16.4291L2.92113 16.8702C2.51427 16.9123 2.31083 16.9333 2.19083 16.8601C2.08631 16.7964 2.01512 16.6899 1.99617 16.5689C1.97441 16.43 2.07162 16.2501 2.26605 15.8902L3.62909 13.3673C3.74135 13.1595 3.79747 13.0556 3.82289 12.9557C3.848 12.8571 3.85407 12.7859 3.84604 12.6844C3.83791 12.5817 3.79283 12.4479 3.70266 12.1804C3.46306 11.4696 3.33318 10.7082 3.33318 9.91659C3.33318 6.00457 6.5045 2.83325 10.4165 2.83325C14.3285 2.83325 17.4999 6.00457 17.4999 9.91659Z" stroke="#666985" stroke-width="1.66667" stroke-linecap="round" stroke-linejoin="round"/>
</g>
</svg>
