<svg width="14" height="14" viewBox="0 0 14 14" fill="none" xmlns="http://www.w3.org/2000/svg">
<g id="ticket-01">
<path id="Icon" d="M5.55553 4.44439V3.88883M5.55553 6.94439V6.38883M5.55553 9.44439V8.88883M2.88886 2.22217H10.4444C11.0667 2.22217 11.3778 2.22217 11.6155 2.34327C11.8246 2.4498 11.9946 2.61978 12.1011 2.82885C12.2222 3.06652 12.2222 3.37767 12.2222 3.99995V4.72217C11.1483 4.72217 10.2778 5.59273 10.2778 6.66661C10.2778 7.7405 11.1483 8.61106 12.2222 8.61106V9.33328C12.2222 9.95556 12.2222 10.2667 12.1011 10.5044C11.9946 10.7134 11.8246 10.8834 11.6155 10.99C11.3778 11.1111 11.0667 11.1111 10.4444 11.1111H2.88886C2.26658 11.1111 1.95544 11.1111 1.71776 10.99C1.50869 10.8834 1.33871 10.7134 1.23219 10.5044C1.11108 10.2667 1.11108 9.95556 1.11108 9.33328V8.61106C2.18497 8.61106 3.05553 7.7405 3.05553 6.66661C3.05553 5.59273 2.18497 4.72217 1.11108 4.72217V3.99995C1.11108 3.37767 1.11108 3.06652 1.23219 2.82885C1.33871 2.61978 1.50869 2.4498 1.71776 2.34327C1.95544 2.22217 2.26658 2.22217 2.88886 2.22217Z" stroke="#989AB3" stroke-width="1.11111" stroke-linecap="round" stroke-linejoin="round"/>
</g>
</svg>
