<svg width="20" height="21" viewBox="0 0 20 21" fill="none" xmlns="http://www.w3.org/2000/svg">
<g id="trash-01">
<path id="Icon" d="M13.3333 5.33333V4.66667C13.3333 3.73325 13.3333 3.26654 13.1517 2.91002C12.9919 2.59641 12.7369 2.34144 12.4233 2.18166C12.0668 2 11.6001 2 10.6667 2H9.33333C8.39991 2 7.9332 2 7.57668 2.18166C7.26308 2.34144 7.00811 2.59641 6.84832 2.91002C6.66667 3.26654 6.66667 3.73325 6.66667 4.66667V5.33333M8.33333 9.91667V14.0833M11.6667 9.91667V14.0833M2.5 5.33333H17.5M15.8333 5.33333V14.6667C15.8333 16.0668 15.8333 16.7669 15.5608 17.3016C15.3212 17.772 14.9387 18.1545 14.4683 18.3942C13.9335 18.6667 13.2335 18.6667 11.8333 18.6667H8.16667C6.76654 18.6667 6.06647 18.6667 5.53169 18.3942C5.06129 18.1545 4.67883 17.772 4.43915 17.3016C4.16667 16.7669 4.16667 16.0668 4.16667 14.6667V5.33333" stroke="#666985" stroke-width="1.66667" stroke-linecap="round" stroke-linejoin="round"/>
</g>
</svg>
