<svg width="14" height="14" viewBox="0 0 14 14" fill="none" xmlns="http://www.w3.org/2000/svg">
<g id="users-01">
<path id="Icon" d="M12.222 12V10.8889C12.222 9.85342 11.5137 8.98337 10.5553 8.73668M8.61084 2.16153C9.42524 2.49119 9.99973 3.28962 9.99973 4.22222C9.99973 5.15483 9.42524 5.95325 8.61084 6.28291M9.44417 12C9.44417 10.9646 9.44417 10.4469 9.27502 10.0385C9.04948 9.49397 8.61687 9.06137 8.07236 8.83582C7.66398 8.66667 7.14627 8.66667 6.11084 8.66667H4.44417C3.40875 8.66667 2.89103 8.66667 2.48265 8.83582C1.93815 9.06137 1.50554 9.49397 1.28 10.0385C1.11084 10.4469 1.11084 10.9646 1.11084 12M7.49973 4.22222C7.49973 5.44952 6.50481 6.44444 5.27751 6.44444C4.05021 6.44444 3.05528 5.44952 3.05528 4.22222C3.05528 2.99492 4.05021 2 5.27751 2C6.50481 2 7.49973 2.99492 7.49973 4.22222Z" stroke="#989AB3" stroke-width="1.11111" stroke-linecap="round" stroke-linejoin="round"/>
</g>
</svg>
